<svg width="21" height="21" viewBox="0 0 21 21" fill="none" xmlns="http://www.w3.org/2000/svg">
    <symbol id="floppy" fill="currentColor">
        <rect id="Rectangle 18" x=".5" width="2.154" height="2.154" />
        <rect id="Rectangle 17" x=".5" y="2.154" width="2.154" height="2.154"/>
        <rect id="Rectangle 19" x=".5" y="4.308" width="2.154" height="2.154"/>
        <rect id="Rectangle 20" x=".5" y="6.462" width="2.154" height="2.154"/>
        <rect id="Rectangle 21" x=".5" y="8.615" width="2.154" height="2.154"/>
        <rect id="Rectangle 22" x=".5" y="10.769" width="2.154" height="2.154"/>
        <rect id="Rectangle 23" x=".5" y="12.923" width="2.154" height="2.154"/>
        <rect id="Rectangle 24" x=".5" y="15.077" width="2.154" height="2.154"/>
        <rect id="Rectangle 25" x=".5" y="17.231" width="2.154" height="2.154"/>
        <rect id="Rectangle 26" x=".5" y="19.385" width="2.154" height="2.154"/>
        <rect id="Rectangle 27" x=".5" y="21.538" width="2.154" height="2.154"/>
        <rect id="Rectangle 28" x=".5" y="23.692" width="2.154" height="2.154"/>
        <rect id="Rectangle 29" x=".5" y="25.846" width="2.154" height="2.154"/>
        <rect id="Rectangle 32" x="24.193" width="2.154" height="2.154" transform="rotate(90 24.1927 0)"/>
        <rect id="Rectangle 33" x="22.039" width="2.154" height="2.154" transform="rotate(90 22.0391 0)"/>
        <rect id="Rectangle 34" x="19.884" width="2.154" height="2.154" transform="rotate(90 19.884 0)"/>
        <rect id="Rectangle 35" x="17.73" width="2.154" height="2.154" transform="rotate(90 17.7305 0)"/>
        <rect id="Rectangle 36" x="15.577" width="2.154" height="2.154" transform="rotate(90 15.5769 0)"/>
        <rect id="Rectangle 37" x="13.423" width="2.154" height="2.154" transform="rotate(90 13.4231 0)"/>
        <rect id="Rectangle 38" x="11.269" width="2.154" height="2.154" transform="rotate(90 11.2695 0)"/>
        <rect id="Rectangle 39" x="9.116" width="2.154" height="2.154" transform="rotate(90 9.11597 0)"/>
        <rect id="Rectangle 40" x="6.961" width="2.154" height="2.154" transform="rotate(90 6.96094 0)"/>
        <rect id="Rectangle 41" x="4.807" width="2.154" height="2.154" transform="rotate(90 4.80737 0)"/>
        <rect id="Rectangle 65" x="26.346" y="2.154" width="2.154" height="2.154" transform="rotate(90 26.3463 2.15405)"/>
        <rect id="Rectangle 85" x="6.961" y="4.308" width="2.154" height="2.154" transform="rotate(90 6.96094 4.30762)"/>
        <rect id="Rectangle 176" x="6.961" y="2.154" width="2.154" height="2.154" transform="rotate(90 6.96094 2.15405)"/>
        <rect id="Rectangle 96" x="6.961" y="6.462" width="2.154" height="2.154" transform="rotate(90 6.96094 6.46167)"/>
        <rect id="Rectangle 177" x="22.039" y="4.308" width="2.154" height="2.154" transform="rotate(90 22.0391 4.30762)"/>
        <rect id="Rectangle 178" x="22.039" y="2.154" width="2.154" height="2.154" transform="rotate(90 22.0391 2.15405)"/>
        <rect id="Rectangle 179" x="22.039" y="6.462" width="2.154" height="2.154" transform="rotate(90 22.0391 6.46167)"/>
        <rect id="Rectangle 180" x="17.73" y="4.308" width="2.154" height="2.154" transform="rotate(90 17.7305 4.30762)"/>
        <rect id="Rectangle 181" x="17.73" y="2.154" width="2.154" height="2.154" transform="rotate(90 17.7305 2.15405)"/>
        <rect id="Rectangle 182" x="17.73" y="6.462" width="2.154" height="2.154" transform="rotate(90 17.7305 6.46167)"/>
        <rect id="Rectangle 100" x="22.039" y="8.615" width="2.154" height="2.154" transform="rotate(90 22.0391 8.61523)"/>
        <rect id="Rectangle 101" x="19.884" y="8.615" width="2.154" height="2.154" transform="rotate(90 19.884 8.61523)"/>
        <rect id="Rectangle 102" x="17.73" y="8.615" width="2.154" height="2.154" transform="rotate(90 17.7305 8.61523)"/>
        <rect id="Rectangle 103" x="15.577" y="8.615" width="2.154" height="2.154" transform="rotate(90 15.5769 8.61523)"/>
        <rect id="Rectangle 104" x="13.423" y="8.615" width="2.154" height="2.154" transform="rotate(90 13.4231 8.61523)"/>
        <rect id="Rectangle 105" x="11.269" y="8.615" width="2.154" height="2.154" transform="rotate(90 11.2695 8.61523)"/>
        <rect id="Rectangle 106" x="9.116" y="8.615" width="2.154" height="2.154" transform="rotate(90 9.11597 8.61523)"/>
        <rect id="Rectangle 107" x="6.961" y="8.615" width="2.154" height="2.154" transform="rotate(90 6.96094 8.61523)"/>
        <rect id="Rectangle 132" x="24.193" y="15.077" width="2.154" height="2.154" transform="rotate(90 24.1927 15.0769)"/>
        <rect id="Rectangle 133" x="22.039" y="15.077" width="2.154" height="2.154" transform="rotate(90 22.0391 15.0769)"/>
        <rect id="Rectangle 134" x="19.884" y="15.077" width="2.154" height="2.154" transform="rotate(90 19.884 15.0769)"/>
        <rect id="Rectangle 135" x="17.73" y="15.077" width="2.154" height="2.154" transform="rotate(90 17.7305 15.0769)"/>
        <rect id="Rectangle 136" x="15.577" y="15.077" width="2.154" height="2.154" transform="rotate(90 15.5769 15.0769)"/>
        <rect id="Rectangle 137" x="13.423" y="15.077" width="2.154" height="2.154" transform="rotate(90 13.4231 15.0769)"/>
        <rect id="Rectangle 138" x="11.269" y="15.077" width="2.154" height="2.154" transform="rotate(90 11.2695 15.0769)"/>
        <rect id="Rectangle 139" x="9.116" y="15.077" width="2.154" height="2.154" transform="rotate(90 9.11597 15.0769)"/>
        <rect id="Rectangle 140" x="6.961" y="15.077" width="2.154" height="2.154" transform="rotate(90 6.96094 15.0769)"/>
        <rect id="Rectangle 143" x="24.193" y="17.231" width="2.154" height="2.154" transform="rotate(90 24.1927 17.2307)"/>
        <rect id="Rectangle 151" x="6.961" y="17.231" width="2.154" height="2.154" transform="rotate(90 6.96094 17.2307)"/>
        <rect id="Rectangle 154" x="24.193" y="19.385" width="2.154" height="2.154" transform="rotate(90 24.1927 19.3848)"/>
        <rect id="Rectangle 162" x="6.961" y="19.385" width="2.154" height="2.154" transform="rotate(90 6.96094 19.3848)"/>
        <rect id="Rectangle 165" x="24.193" y="21.538" width="2.154" height="2.154" transform="rotate(90 24.1927 21.5383)"/>
        <rect id="Rectangle 173" x="6.961" y="21.538" width="2.154" height="2.154" transform="rotate(90 6.96094 21.5383)"/>
        <rect id="Rectangle 174" x="6.961" y="23.692" width="2.154" height="2.154" transform="rotate(90 6.96094 23.6924)"/>
        <rect id="Rectangle 175" x="24.193" y="23.692" width="2.154" height="2.154" transform="rotate(90 24.1927 23.6924)"/>
        <rect id="Rectangle 54" x="26.346" y="25.846" width="2.154" height="2.154" transform="rotate(90 26.3463 25.8459)"/>
        <rect id="Rectangle 55" x="24.193" y="25.846" width="2.154" height="2.154" transform="rotate(90 24.1927 25.8459)"/>
        <rect id="Rectangle 56" x="22.039" y="25.846" width="2.154" height="2.154" transform="rotate(90 22.0391 25.8459)"/>
        <rect id="Rectangle 57" x="19.884" y="25.846" width="2.154" height="2.154" transform="rotate(90 19.884 25.8459)"/>
        <rect id="Rectangle 58" x="17.73" y="25.846" width="2.154" height="2.154" transform="rotate(90 17.7305 25.8459)"/>
        <rect id="Rectangle 59" x="15.577" y="25.846" width="2.154" height="2.154" transform="rotate(90 15.5769 25.8459)"/>
        <rect id="Rectangle 60" x="13.423" y="25.846" width="2.154" height="2.154" transform="rotate(90 13.4231 25.8459)"/>
        <rect id="Rectangle 61" x="11.269" y="25.846" width="2.154" height="2.154" transform="rotate(90 11.2695 25.8459)"/>
        <rect id="Rectangle 62" x="9.116" y="25.846" width="2.154" height="2.154" transform="rotate(90 9.11597 25.8459)"/>
        <rect id="Rectangle 63" x="6.961" y="25.846" width="2.154" height="2.154" transform="rotate(90 6.96094 25.8459)"/>
        <rect id="Rectangle 64" x="4.807" y="25.846" width="2.154" height="2.154" transform="rotate(90 4.80737 25.8459)"/>
        <rect id="Rectangle 42" x="28.5" y="28" width="2.154" height="2.154" transform="rotate(-180 28.5 28)"/>
        <rect id="Rectangle 43" x="28.5" y="25.846" width="2.154" height="2.154" transform="rotate(-180 28.5 25.8459)"/>
        <rect id="Rectangle 44" x="28.5" y="23.692" width="2.154" height="2.154" transform="rotate(-180 28.5 23.6924)"/>
        <rect id="Rectangle 45" x="28.5" y="21.538" width="2.154" height="2.154" transform="rotate(-180 28.5 21.5383)"/>
        <rect id="Rectangle 46" x="28.5" y="19.385" width="2.154" height="2.154" transform="rotate(-180 28.5 19.3848)"/>
        <rect id="Rectangle 47" x="28.5" y="17.231" width="2.154" height="2.154" transform="rotate(-180 28.5 17.2307)"/>
        <rect id="Rectangle 48" x="28.5" y="15.077" width="2.154" height="2.154" transform="rotate(-180 28.5 15.0769)"/>
        <rect id="Rectangle 49" x="28.5" y="12.923" width="2.154" height="2.154" transform="rotate(-180 28.5 12.9231)"/>
        <rect id="Rectangle 50" x="28.5" y="10.769" width="2.154" height="2.154" transform="rotate(-180 28.5 10.7693)"/>
        <rect id="Rectangle 51" x="28.5" y="8.615" width="2.154" height="2.154" transform="rotate(-180 28.5 8.61523)"/>
        <rect id="Rectangle 52" x="28.5" y="6.462" width="2.154" height="2.154" transform="rotate(-180 28.5 6.46167)"/>
    </symbol>
</svg>